# xmcd
#
# Track frame offsets:
#	150
#	18030
#	32267
#	47679
#	64176
#	76688
#	94556
#	107944
#	125289
#	137423
#	151634
#	167333
#	175719
#	198680
#	228003
#	260434
#	277897
#	297553
#	317680
#
# Disc length: 4492 seconds
#
# Revision: 0
# Processed by: cddbd v1.5.2PL0 Copyright (c) Steve Scherf et al.
# Submitted via: dBpowerAMP V4.0
#
DISCID=e4118a13
DTITLE=LAIRTON DOS TECLADOS - GRANDES SUCESSOS 
DYEAR=2004
DGENRE=BREGA
TTITLE0=MORANGO DO NORDESTE
TTITLE1=AMIGO SEU
TTITLE2=DORMI NA PRACA
TTITLE3=FONTE DE DESEJOS
TTITLE4=TORTURA DE AMOR
TTITLE5=LIGUEI PRA DIZER QUE TE AMO
TTITLE6=O RELOGIO
TTITLE7=YOLANDA
TTITLE8=PORQUE BRIGAMOS
TTITLE9=SENHORITA
TTITLE10=DESEJ0 DE MULHER
TTITLE11=VIOLA
TTITLE12=POT-POURRI NEGUE - LEMBRANCAS
TTITLE13=POT-POURRI DIANA TCHAU, TCHAU, AMOR
TTITLE14=POT POURRI CORPO E ALMA/REDEAS DO POSSANTE
TTITLE15=DESILUSAO
TTITLE16=LOUCA DE SAUDADE
TTITLE17=SEM VOCE
TTITLE18=NEM UM TOQUE
EXTD=
EXTT0=
EXTT1=
EXTT2=
EXTT3=
EXTT4=
EXTT5=
EXTT6=
EXTT7=
EXTT8=
EXTT9=
EXTT10=
EXTT11=
EXTT12=
EXTT13=
EXTT14=
EXTT15=
EXTT16=
EXTT17=
EXTT18=
PLAYORDER=
